<?xml version="1.0" encoding="UTF-8" standalone="no"?>
<!-- Created with Inkscape (http://www.inkscape.org/) -->

<svg
   xmlns:dc="http://purl.org/dc/elements/1.1/"
   xmlns:cc="http://creativecommons.org/ns#"
   xmlns:rdf="http://www.w3.org/1999/02/22-rdf-syntax-ns#"
   xmlns:svg="http://www.w3.org/2000/svg"
   xmlns="http://www.w3.org/2000/svg"
   xmlns:sodipodi="http://sodipodi.sourceforge.net/DTD/sodipodi-0.dtd"
   xmlns:inkscape="http://www.inkscape.org/namespaces/inkscape"
   version="1.1"
   viewBox="0 0 254 254"
   id="svg19"
   sodipodi:docname="190.svg"
   inkscape:version="0.92.4 (5da689c313, 2019-01-14)">
  <sodipodi:namedview
     pagecolor="#ffffff"
     bordercolor="#666666"
     borderopacity="1"
     objecttolerance="10"
     gridtolerance="10"
     guidetolerance="10"
     inkscape:pageopacity="0"
     inkscape:pageshadow="2"
     inkscape:window-width="958"
     inkscape:window-height="991"
     id="namedview21"
     showgrid="false"
     inkscape:zoom="0.65699685"
     inkscape:cx="203.22718"
     inkscape:cy="168.29389"
     inkscape:window-x="-9"
     inkscape:window-y="-9"
     inkscape:window-maximized="1"
     inkscape:current-layer="g17" />
  <defs
     id="defs7">
    <radialGradient
       id="radialGradient832"
       cx="170.55339"
       cy="82.38916"
       r="123.85"
       gradientTransform="matrix(2.2950064,-1.4289204,1.5597172,2.5069459,-420.43728,39.808553)"
       gradientUnits="userSpaceOnUse"
       fx="170.55339"
       fy="82.38916">
      <stop
         stop-color="#e2b994"
         offset="0"
         id="stop2"
         style="stop-color:#dd9eff;stop-opacity:1" />
      <stop
         stop-color="#c53737"
         stop-opacity=".16863"
         offset="1"
         id="stop4"
         style="stop-color:#c000de;stop-opacity:1" />
    </radialGradient>
  </defs>
  <metadata
     id="metadata9">
    <rdf:RDF>
      <cc:Work
         rdf:about="">
        <dc:format>image/svg+xml</dc:format>
        <dc:type
           rdf:resource="http://purl.org/dc/dcmitype/StillImage" />
        <dc:title />
      </cc:Work>
    </rdf:RDF>
  </metadata>
  <g
     transform="translate(0,-43)"
     id="g17">
    <rect
       x="3.0237999"
       y="46.352001"
       width="247.7"
       height="247.7"
       rx="58.459"
       id="rect13"
       style="fill:url(#radialGradient832);stroke-width:0.37694001" />
    <path
       d="m 115.65,131.33 c -2.3754,0 -4.4976,0.97917 -5.9434,2.5327 l 48.616,35.514 c 0.31976,0.23357 0.66279,0.43747 1.0243,0.61189 0.36132,0.17429 0.74114,0.31893 1.1324,0.43405 0.39145,0.1153 0.7952,0.20093 1.2039,0.25716 0.40907,0.0562 0.82389,0.084 1.2383,0.0809 0.41449,-0.003 0.82893,-0.0339 1.2367,-0.0971 0.40819,-0.0619 0.81007,-0.15226 1.1995,-0.27271 0.38908,-0.12024 0.76647,-0.27017 1.125,-0.44927 0.35867,-0.17907 0.69869,-0.38731 1.0145,-0.62498 l 47.978,-36.113 c -1.3935,-1.1658 -3.2299,-1.8735 -5.2487,-1.8735 z m 103.29,6.6729 v 5.2e-4 l -34.784,27.053 37.148,35.192 c 0.30415,-0.85025 0.4711,-1.7641 0.4711,-2.7177 v -53.375 c 0,-2.4537 -1.0944,-4.649 -2.8344,-6.153 z m -113.11,0.72862 c -1.302,1.4459 -2.0914,3.3416 -2.0914,5.4244 v 53.375 c 0,1.3448 0.33037,2.6112 0.91352,3.7296 l 37.257,-35.296 z m 72.861,30.575 -11.059,8.6011 c -0.33781,0.26253 -0.70096,0.49269 -1.0847,0.69064 -0.38332,0.19786 -0.78724,0.36336 -1.2036,0.49656 -0.41622,0.13282 -0.84548,0.23333 -1.2819,0.30147 -0.43639,0.0697 -0.87935,0.10378 -1.3228,0.10674 -0.44311,0.003 -0.88682,-0.0258 -1.3242,-0.09 -0.43747,-0.064 -0.86897,-0.15684 -1.2876,-0.28411 -0.41824,-0.12716 -0.82481,-0.28721 -1.2112,-0.47985 -0.38661,-0.19271 -0.75327,-0.41772 -1.0951,-0.67573 l -10.349,-7.811 c -0.32517,0.40385 -0.67727,0.79418 -1.0604,1.1572 l -36.126,34.223 c 0.61066,0.13586 1.2458,0.20981 1.9001,0.20981 h 101.14 c 1.0774,0 2.1052,-0.1966 3.0511,-0.55144 l -36.491,-34.569 c -0.4368,-0.4138 -0.8362,-0.86125 -1.197,-1.3265 z m -71.777,-43.872 h 111.84 c 5.1747,0 9.3405,4.1658 9.3405,9.3405 v 67.573 c 0,5.1747 -4.1658,9.3405 -9.3405,9.3405 h -111.84 c -5.1747,0 -9.3405,-4.1658 -9.3405,-9.3405 v -67.573 c 0,-5.1747 4.1658,-9.3405 9.3405,-9.3405 z m -85.411,24.064 63.132,0.0651 c 2.0039,0.002 3.6286,1.4494 3.6427,3.2453 0.01408,1.7958 -1.5882,3.2401 -3.592,3.238 l -63.132,-0.0651 c -2.0039,-0.002 -3.6286,-1.4495 -3.6427,-3.2453 -0.01408,-1.7958 1.5882,-3.2401 3.592,-3.238 z m 20.779,14.818 42.356,0.0631 c 1.785,0.003 3.2299,1.4422 3.2396,3.2272 l 5.29e-4,0.0388 c 0.0097,1.785 -1.4199,3.22 -3.205,3.2174 l -42.355,-0.063 c -1.785,-0.003 -3.2299,-1.4422 -3.2396,-3.2272 l -5.3e-4,-0.0388 c -0.0097,-1.785 1.4194,-3.22 3.2045,-3.2174 z m 17.281,14.82 24.874,0.0563 c 1.974,0.005 3.5681,1.4541 3.5745,3.2499 0.0064,1.7958 -1.5778,3.2379 -3.5517,3.2334 l -24.873,-0.0568 c -1.974,-0.004 -3.5686,-1.4536 -3.575,-3.2494 -0.0064,-1.7958 1.5778,-3.2379 3.5517,-3.2334 z"
       id="path15"
       inkscape:connector-curvature="0"
       style="fill:#ebebeb;stroke:#ebebeb;stroke-width:2.6961;stroke-linecap:round" />
  </g>
</svg>
