<?xml version="1.0" encoding="UTF-8" standalone="no"?>
<!-- Created with Inkscape (http://www.inkscape.org/) -->

<svg
   xmlns:dc="http://purl.org/dc/elements/1.1/"
   xmlns:cc="http://creativecommons.org/ns#"
   xmlns:rdf="http://www.w3.org/1999/02/22-rdf-syntax-ns#"
   xmlns:svg="http://www.w3.org/2000/svg"
   xmlns="http://www.w3.org/2000/svg"
   xmlns:sodipodi="http://sodipodi.sourceforge.net/DTD/sodipodi-0.dtd"
   xmlns:inkscape="http://www.inkscape.org/namespaces/inkscape"
   version="1.1"
   viewBox="0 0 254 254"
   id="svg36"
   sodipodi:docname="210.svg"
   inkscape:version="0.92.4 (5da689c313, 2019-01-14)">
  <sodipodi:namedview
     pagecolor="#ffffff"
     bordercolor="#666666"
     borderopacity="1"
     objecttolerance="10"
     gridtolerance="10"
     guidetolerance="10"
     inkscape:pageopacity="0"
     inkscape:pageshadow="2"
     inkscape:window-width="958"
     inkscape:window-height="991"
     id="namedview38"
     showgrid="false"
     inkscape:zoom="1.3139937"
     inkscape:cx="125.80046"
     inkscape:cy="85.817838"
     inkscape:window-x="952"
     inkscape:window-y="0"
     inkscape:window-maximized="0"
     inkscape:current-layer="g34" />
  <defs
     id="defs12">
    <radialGradient
       id="radialGradient879"
       cx="185.27"
       cy="81.787"
       r="123.85"
       gradientTransform="matrix(2.4635 -2.2747 2.2618 2.4519 -475.44 223.64)"
       gradientUnits="userSpaceOnUse">
      <stop
         stop-color="#a2e6af"
         offset="0"
         id="stop2" />
      <stop
         stop-color="#37c570"
         stop-opacity=".1791"
         offset="1"
         id="stop4" />
    </radialGradient>
    <radialGradient
       id="radialGradient832-3"
       cx="111.2"
       cy="47.337"
       r="123.85"
       gradientTransform="matrix(2.5674 -1.5004 1.4888 2.5497 -431.97 41.882)"
       gradientUnits="userSpaceOnUse">
      <stop
         stop-color="#e2b994"
         offset="0"
         id="stop7" />
      <stop
         stop-color="#c53737"
         stop-opacity=".16863"
         offset="1"
         id="stop9" />
    </radialGradient>
    <radialGradient
       id="radialGradient832"
       cx="108.69227"
       cy="58.665012"
       r="123.85"
       gradientTransform="matrix(2.2950065,-1.4289205,1.5597172,2.5069459,-421.38738,-2.3171595)"
       gradientUnits="userSpaceOnUse"
       fx="108.69227"
       fy="58.665012">
      <stop
         stop-color="#e2b994"
         offset="0"
         id="stop2-1"
         style="stop-color:#fe4848;stop-opacity:0.44313726" />
      <stop
         stop-color="#c53737"
         stop-opacity=".16863"
         offset="1"
         id="stop4-1"
         style="stop-color:#ff78a9;stop-opacity:0.83529413" />
    </radialGradient>
    <radialGradient
       id="radialGradient832-8"
       cx="176.99059"
       cy="78.77253"
       r="123.85"
       gradientTransform="matrix(2.2950064,-1.4289204,1.5597172,2.5069459,-420.21762,38.37154)"
       gradientUnits="userSpaceOnUse"
       fx="176.99059"
       fy="78.77253">
      <stop
         stop-color="#e2b994"
         offset="0"
         id="stop2-4"
         style="stop-color:#9c7efe;stop-opacity:0.87058824" />
      <stop
         stop-color="#c53737"
         stop-opacity=".16863"
         offset="1"
         id="stop4-19"
         style="stop-color:#b300cf;stop-opacity:1" />
    </radialGradient>
    <radialGradient
       id="radialGradient832-1"
       cx="170.55339"
       cy="82.38916"
       r="123.85"
       gradientTransform="matrix(2.2950064,-1.4289204,1.5597172,2.5069459,-420.21762,-5.0089793)"
       gradientUnits="userSpaceOnUse"
       fx="170.55339"
       fy="82.38916">
      <stop
         stop-color="#e2b994"
         offset="0"
         id="stop2-6"
         style="stop-color:#dd9eff;stop-opacity:1" />
      <stop
         stop-color="#c53737"
         stop-opacity=".16863"
         offset="1"
         id="stop4-6"
         style="stop-color:#c000de;stop-opacity:1" />
    </radialGradient>
  </defs>
  <metadata
     id="metadata14">
    <rdf:RDF>
      <cc:Work
         rdf:about="">
        <dc:format>image/svg+xml</dc:format>
        <dc:type
           rdf:resource="http://purl.org/dc/dcmitype/StillImage" />
        <dc:title />
      </cc:Work>
    </rdf:RDF>
  </metadata>
  <rect
     x="3.2434568"
     y="1.5344689"
     width="247.7"
     height="247.7"
     rx="58.459"
     id="rect13"
     style="fill:url(#radialGradient832-1);stroke-width:0.37694001" />
  <g
     transform="translate(0,-43)"
     id="g34">
    <g
       id="g32"
       style="fill:#ebebeb">
      <path
         d="m 50.162,88.762 c -4.9877,0 -9.0031,4.0158 -9.0031,9.0035 v 17.941 c 0,3.5921 2.0832,6.6794 5.1118,8.1261 v 63.682 c -2.5089,1.5424 -4.176,4.3112 -4.176,7.4843 v 18.387 c 0,4.8645 3.9164,8.7804 8.7809,8.7804 h 17.206 c 4.8645,0 8.7803,-3.9159 8.7803,-8.7804 v -18.387 c 0,-3.6406 -2.1938,-6.7496 -5.3366,-8.0838 v -63.005 c 3.1202,-1.4112 5.2818,-4.5449 5.2818,-8.2036 v -17.941 c 0,-4.9877 -4.0158,-9.0035 -9.0036,-9.0035 z m 33.443,11.566 v 17.601 c 0,4.0359 -1.9057,7.6085 -4.8684,9.8764 v 55.07 c 3.1984,2.2446 5.2829,5.9585 5.2829,10.18 v 13.841 h 4.4462 v -27.831 c 0,-0.0258 0.02061,-0.0465 0.04703,-0.0465 h 127.24 c 0.0262,0 0.0476,0.0207 0.0476,0.0465 v 27.303 c 4.7568,-1.4802 8.1918,-5.9047 8.1918,-11.161 v -83.188 c 0,-6.476 -5.2137,-11.69 -11.69,-11.69 z m -49.22,1.8319 c -3.2471,2.0724 -5.3945,5.7041 -5.3945,9.8578 v 83.188 c 0,4.3283 2.3307,8.0902 5.809,10.111 v -12.262 c 0,-3.8319 1.7183,-7.2463 4.4276,-9.5229 v -55.748 c -2.9477,-2.2689 -4.8421,-5.8311 -4.8421,-9.8552 z m 64.492,7.152 h 104.91 c 1.6717,0 3.0179,1.3457 3.0179,3.0174 v 26.62 c 0,1.6717 -1.3462,3.0179 -3.0179,3.0179 H 98.877 c -1.6717,0 -3.0174,-1.3462 -3.0174,-3.0179 v -26.62 c 0,-1.6717 1.3457,-3.0174 3.0174,-3.0174 z m 54.15,37.146 h 19.165 v 8.5535 h -19.165 z m 21.7,0 h 19.165 v 8.5535 h -19.165 z m -66.204,0.0791 h 6.7743 c 0.4691,0 0.84646,0.37739 0.84646,0.84646 v 6.7743 c 0,0.4691 -0.37736,0.84646 -0.84646,0.84646 h -6.7743 c -0.4691,0 -0.84646,-0.37736 -0.84646,-0.84646 v -6.7743 c 0,-0.46907 0.37736,-0.84646 0.84646,-0.84646 z m 9.525,0 h 6.7738 c 0.46909,0 0.84697,0.37739 0.84697,0.84646 v 6.7743 c 0,0.4691 -0.37788,0.84646 -0.84697,0.84646 h -6.7738 c -0.4691,0 -0.84698,-0.37736 -0.84698,-0.84646 v -6.7743 c 0,-0.46907 0.37788,-0.84646 0.84698,-0.84646 z m 9.525,0 h 6.7737 c 0.46911,0 0.84699,0.37739 0.84699,0.84646 v 6.7743 c 0,0.4691 -0.37788,0.84646 -0.84699,0.84646 h -6.7737 c -0.46911,0 -0.84699,-0.37736 -0.84699,-0.84646 v -6.7743 c 0,-0.46907 0.37788,-0.84646 0.84699,-0.84646 z m 25.453,9.4459 h 19.165 v 8.5535 h -19.165 z m 21.7,0 h 19.165 v 8.5535 h -19.165 z m -66.204,0.0791 h 6.7743 c 0.4691,0 0.84646,0.37738 0.84646,0.84646 v 6.7743 c 0,0.4691 -0.37736,0.84646 -0.84646,0.84646 h -6.7743 c -0.4691,0 -0.84646,-0.37736 -0.84646,-0.84646 v -6.7743 c 0,-0.46908 0.37736,-0.84646 0.84646,-0.84646 z m 9.525,0 h 6.7738 c 0.46909,0 0.84697,0.3774 0.84697,0.84646 v 6.7743 c 0,0.17591 -0.053,0.33878 -0.14418,0.47388 -0.0304,0.045 -0.0651,0.0868 -0.10335,0.12505 -0.0383,0.0384 -0.0799,0.0729 -0.12505,0.10335 -0.13514,0.0911 -0.29848,0.14418 -0.47439,0.14418 h -6.7738 c -0.17606,0 -0.33923,-0.0529 -0.47439,-0.14418 -0.0203,-0.0137 -0.0374,-0.0312 -0.0563,-0.0465 -0.0232,-0.0187 -0.0477,-0.0358 -0.0687,-0.0568 -0.0172,-0.0172 -0.0308,-0.0377 -0.0465,-0.0563 -0.12375,-0.14707 -0.20102,-0.33445 -0.20102,-0.5426 v -6.7743 c 0,-0.23451 0.0944,-0.44595 0.24753,-0.59893 0.0382,-0.0382 0.0802,-0.073 0.12506,-0.10335 0.045,-0.0304 0.0935,-0.0567 0.14418,-0.078 0.10137,-0.0427 0.21294,-0.0661 0.33021,-0.0661 z m 9.525,0 h 6.7737 c 0.46911,0 0.84699,0.3774 0.84699,0.84646 v 6.7743 c 0,0.4691 -0.37788,0.84646 -0.84699,0.84646 h -6.7737 c -0.46911,0 -0.84699,-0.37736 -0.84699,-0.84646 v -6.7743 c 0,-0.46906 0.37788,-0.84646 0.84699,-0.84646 z m -19.049,9.2604 h 6.7737 c 0.4691,0 0.84698,0.37738 0.84698,0.84645 v 6.7743 c 0,0.4691 -0.37788,0.84646 -0.84698,0.84646 h -6.7737 c -0.4691,0 -0.84698,-0.37736 -0.84698,-0.84646 v -6.7743 c 0,-0.46907 0.37788,-0.84645 0.84698,-0.84645 z m 9.5245,0 h 6.7743 c 0.4691,0 0.84646,0.37739 0.84646,0.84645 v 6.7743 c 0,0.4691 -0.37736,0.84646 -0.84646,0.84646 h -6.7743 c -0.4691,0 -0.84646,-0.37736 -0.84646,-0.84646 v -6.7743 c 0,-0.46906 0.37736,-0.84645 0.84646,-0.84645 z m 9.525,0 h 6.7737 c 0.46911,0 0.84699,0.3774 0.84699,0.84645 v 6.7743 c 0,0.4691 -0.37788,0.84646 -0.84699,0.84646 h -6.7737 c -0.46911,0 -0.84699,-0.37736 -0.84699,-0.84646 v -6.7743 c 0,-0.46905 0.37788,-0.84645 0.84699,-0.84645 z m 25.453,0.18551 h 19.165 v 8.5535 h -19.165 z m 21.7,0 h 19.165 v 8.5535 h -19.165 z"
         id="path26"
         inkscape:connector-curvature="0"
         style="stroke:#ebebeb;stroke-width:3.41599989;stroke-linecap:round" />
      <path
         d="m 194.27,200.02 -85.87,0.007 c -0.87302,5e-5 -2.0128,1.3108 -2.0128,2.2986 v 6.5851 l 0.0455,7.3484 v 35.844 c 0,0.81981 0.678,1.4795 1.5203,1.4795 h 86.494 c 0.84234,0 1.5208,-0.65967 1.5208,-1.4795 v -35.844 l 0.008,-4.3072 -0.0434,-10.402 c -0.004,-0.98777 -0.78994,-1.5297 -1.663,-1.5296 z m -75.452,8.3923 h 38.79 c 1.4265,0 2.575,1.1485 2.575,2.575 0,1.4265 -1.1485,2.575 -2.575,2.575 h -38.79 c -1.4265,0 -2.575,-1.1485 -2.575,-2.575 0,-1.4265 1.1485,-2.575 2.575,-2.575 z m 0,10.483 h 38.79 c 1.4265,0 2.575,1.1485 2.575,2.575 0,1.4265 -1.1485,2.575 -2.575,2.575 h -38.79 c -1.4265,0 -2.575,-1.1485 -2.575,-2.575 0,-1.4265 1.1485,-2.575 2.575,-2.575 z m 0,10.319 h 63.831 c 1.4265,0 2.575,1.1485 2.575,2.575 0,1.4265 -1.1485,2.575 -2.575,2.575 h -63.831 c -1.4265,0 -2.575,-1.1485 -2.575,-2.575 0,-1.4265 1.1485,-2.575 2.575,-2.575 z m 0,11.112 h 63.831 c 1.4265,0 2.575,1.1485 2.575,2.575 0,1.4265 -1.1485,2.5745 -2.575,2.5745 h -63.831 c -1.4265,0 -2.575,-1.148 -2.575,-2.5745 0,-1.4265 1.1485,-2.575 2.575,-2.575 z"
         id="path28"
         inkscape:connector-curvature="0"
         style="stroke:#ebebeb;stroke-width:3.09500003;stroke-linecap:round" />
      <path
         d="m 93.638,184.41 c -0.02421,0 -0.0434,0.0155 -0.0434,0.0348 v 24.431 c 0,0.0193 0.019,0.0348 0.0434,0.0348 h 7.8486 v -12.363 c 0,-0.74599 0.75745,-1.3466 1.6988,-1.3466 h 96.669 c 0.94141,0 1.6994,0.6006 1.6994,1.3466 v 12.363 h 8.6464 c 0.0242,0 0.0438,-0.0156 0.0438,-0.0348 v -24.431 c 0,-0.0193 -0.0198,-0.0348 -0.0438,-0.0348 z"
         id="path30"
         inkscape:connector-curvature="0" />
    </g>
  </g>
</svg>
