<?xml version="1.0" encoding="UTF-8" standalone="no"?>
<!-- Created with Inkscape (http://www.inkscape.org/) -->

<svg
   xmlns:dc="http://purl.org/dc/elements/1.1/"
   xmlns:cc="http://creativecommons.org/ns#"
   xmlns:rdf="http://www.w3.org/1999/02/22-rdf-syntax-ns#"
   xmlns:svg="http://www.w3.org/2000/svg"
   xmlns="http://www.w3.org/2000/svg"
   xmlns:sodipodi="http://sodipodi.sourceforge.net/DTD/sodipodi-0.dtd"
   xmlns:inkscape="http://www.inkscape.org/namespaces/inkscape"
   version="1.1"
   viewBox="0 0 254 254"
   id="svg51"
   sodipodi:docname="260.svg"
   inkscape:version="0.92.4 (5da689c313, 2019-01-14)">
  <sodipodi:namedview
     pagecolor="#ffffff"
     bordercolor="#666666"
     borderopacity="1"
     objecttolerance="10"
     gridtolerance="10"
     guidetolerance="10"
     inkscape:pageopacity="0"
     inkscape:pageshadow="2"
     inkscape:window-width="958"
     inkscape:window-height="991"
     id="namedview53"
     showgrid="false"
     inkscape:zoom="0.92913386"
     inkscape:cx="111.89135"
     inkscape:cy="284.5854"
     inkscape:window-x="-8"
     inkscape:window-y="0"
     inkscape:window-maximized="0"
     inkscape:current-layer="g49" />
  <defs
     id="defs15">
    <radialGradient
       id="radialGradient832"
       cx="188.38"
       cy="82.622"
       r="123.85"
       gradientTransform="matrix(3.3529 -.032925 .027789 2.9524 -419.87 -176.98)"
       gradientUnits="userSpaceOnUse">
      <stop
         stop-color="#a2d4e6"
         offset="0"
         id="stop2" />
      <stop
         stop-color="#379fc5"
         stop-opacity=".16863"
         offset="1"
         id="stop4" />
    </radialGradient>
    <linearGradient
       id="linearGradient824"
       x1="138.55"
       x2="295.25"
       y1="92.525"
       y2="92.525"
       gradientTransform="matrix(.65723 .47045 -.4648 .67047 74.055 30.281)"
       gradientUnits="userSpaceOnUse">
      <stop
         stop-color="#f6f6f6"
         offset="0"
         id="stop7" />
    </linearGradient>
    <radialGradient
       id="radialGradient832-1"
       cx="177.37"
       cy="59.971"
       r="123.85"
       gradientTransform="matrix(4.0604,0.081867,-0.068118,3.2888,-566.94288,-399.52712)"
       gradientUnits="userSpaceOnUse">
      <stop
         stop-color="#b5e6a2"
         offset="0"
         id="stop10" />
      <stop
         stop-color="#5fc537"
         stop-opacity=".16863"
         offset="1"
         id="stop12" />
    </radialGradient>
    <radialGradient
       id="radialGradient832-9"
       cx="334.8165"
       cy="373.05075"
       r="123.85"
       gradientTransform="matrix(0.45955991,0.1648218,-0.12935544,0.3606629,-77.757225,-118.95057)"
       gradientUnits="userSpaceOnUse"
       fx="334.8165"
       fy="373.05075">
      <stop
         stop-color="#e2b994"
         offset="0"
         id="stop2-8"
         style="stop-color:#e2b994;stop-opacity:0.41999999" />
      <stop
         stop-color="#c53737"
         stop-opacity=".16863"
         offset="1"
         id="stop4-6"
         style="stop-color:#8d9129;stop-opacity:0.23" />
    </radialGradient>
    <radialGradient
       id="radialGradient832-0"
       cx="111.2"
       cy="47.337002"
       r="123.85"
       gradientTransform="matrix(2.5674,-1.5004,1.4888,2.5497,-431.75034,42.347584)"
       gradientUnits="userSpaceOnUse">
      <stop
         stop-color="#e2b994"
         offset="0"
         id="stop2-1"
         style="stop-color:#ffa477;stop-opacity:1" />
      <stop
         stop-color="#c53737"
         stop-opacity=".16863"
         offset="1"
         id="stop4-1"
         style="stop-color:#e1c11b;stop-opacity:1" />
    </radialGradient>
    <radialGradient
       id="radialGradient832-6"
       cx="111.2"
       cy="47.337002"
       r="123.85"
       gradientTransform="matrix(2.5674,-1.5004,1.4888,2.5497,-431.30566,42.218136)"
       gradientUnits="userSpaceOnUse">
      <stop
         stop-color="#e2b994"
         offset="0"
         id="stop2-9" />
      <stop
         stop-color="#c53737"
         stop-opacity=".16863"
         offset="1"
         id="stop4-0" />
    </radialGradient>
  </defs>
  <metadata
     id="metadata17">
    <rdf:RDF>
      <cc:Work
         rdf:about="">
        <dc:format>image/svg+xml</dc:format>
        <dc:type
           rdf:resource="http://purl.org/dc/dcmitype/StillImage" />
        <dc:title />
      </cc:Work>
    </rdf:RDF>
  </metadata>
  <g
     transform="translate(0,-43)"
     id="g49">
    <rect
       x="3.6881375"
       y="46.688137"
       width="247.7"
       height="247.7"
       rx="58.459"
       id="rect11"
       style="fill:#e1c11b;fill-opacity:1;stroke-width:0.37694001" />
    <rect
       x="3.6881375"
       y="46.688137"
       width="247.7"
       height="247.7"
       rx="58.459"
       id="rect13-0"
       style="fill:url(#radialGradient832-6);stroke-width:0.37694001" />
    <g
       id="g43"
       style="fill:#f4f4f4">
      <rect
         x="142.28"
         y="210.85001"
         width="3.6503"
         height="17.148001"
         ry="1.6776"
         id="rect29" />
      <rect
         transform="rotate(47.547)"
         x="270.5"
         y="24.693001"
         width="3.6503"
         height="14.267"
         ry="1.3957"
         id="rect31" />
      <rect
         transform="matrix(-0.67498,0.73784,0.73784,0.67498,0,0)"
         x="75.928001"
         y="237.41"
         width="3.6503"
         height="14.267"
         ry="1.3957"
         id="rect33" />
      <path
         d="m 98.804,234.45 a 53.136,28.778 0 0 1 -19.16,18.708 v 8.5444 c 0,3.2737 2.6276,5.9095 5.8916,5.9095 h 130.13 c 3.264,0 5.8912,-2.6358 5.8912,-5.9095 v -21.344 c 0,-3.2737 -2.6272,-5.9086 -5.8912,-5.9086 z m 24.187,14.027 a 4.4678,4.4678 0 0 1 4.4677,4.4677 4.4678,4.4678 0 0 1 -4.4677,4.4677 4.4678,4.4678 0 0 1 -4.4681,-4.4677 4.4678,4.4678 0 0 1 4.4681,-4.4677 z m -9.3522,0.0801 a 4.4678,4.4678 0 0 1 4.4677,4.4681 4.4678,4.4678 0 0 1 -4.4677,4.4677 4.4678,4.4678 0 0 1 -4.4681,-4.4677 4.4678,4.4678 0 0 1 4.4681,-4.4681 z m 14.116,0.4226 h 18.917 v 7.9781 h -18.917 z"
         id="path35"
         inkscape:connector-curvature="0"
         style="stroke:#f4f4f4;stroke-width:3.21799994" />
      <path
         transform="matrix(0.26458,0,0,0.26458,0,43)"
         d="m 321.4,418.39 -96.645,166.64 h 359.09 l 1.7109,-2.9492 -147.51,-105.98 c -7.8959,-8.5978 -8.2731,-17.094 -3.4623,-25.725 6.8757,-10.212 7.819,-11.384 15.134,-20.862 0.48347,-0.66427 8.3095,-10.678 8.8312,-11.301 z m 201.62,0 111.35,79.518 46.117,-79.518 z"
         id="path37"
         inkscape:connector-curvature="0" />
      <rect
         transform="matrix(0.50156,0.86512,-1,-1.5116e-4,0,0)"
         x="78.370003"
         y="-93.130997"
         width="95.009003"
         height="50.969002"
         id="rect39" />
      <rect
         transform="matrix(0.49996,-0.86605,0.50822,0.86123,0,0)"
         x="-61.716999"
         y="115.12"
         width="97.975998"
         height="52.548"
         id="rect41" />
    </g>
    <path
       d="m 122.96,162.97 96.409,69.01 -1.2609,1.8189 -96.409,-69.01 z m 9.0068,-7.9403 92.246,66.081 c 0.16724,0.11979 0.031,0.60715 -0.30532,1.0927 1.862,2.9227 2.8305,3.3392 -0.90903,0.66031 l -92.246,-66.081 c -2.3373,-1.6744 -3.1962,-2.1186 0.30533,-1.0928 0.55767,0.16338 0.7418,-0.78009 0.90904,-0.66029 z m 4.949,2.1125 c -4.5514,-3.2509 -10.34,-2.9491 -12.978,0.67562 l -0.94054,1.2922 c -0.16706,0.22965 -0.31782,0.46695 -0.4513,0.71126 l -3.0088,4.1338 c -0.74113,1.0183 -0.30835,2.5732 0.97036,3.4863 l 95.808,68.415 c 1.2777,0.91449 2.9047,0.8284 3.6459,-0.18977 l 4.6342,-6.4663 c 0.0603,-0.10437 0.22024,-0.37728 0.33745,-0.52094 1.8433,-3.5937 0.20991,-8.5357 -3.9895,-11.534 z"
       id="path45"
       inkscape:connector-curvature="0"
       style="fill:none;stroke:url(#linearGradient824);stroke-width:3.13680005;stroke-linecap:round" />
    <rect
       transform="matrix(0.81502,0.57943,-0.57236,0.82001,0,0)"
       x="192.96001"
       y="57.662998"
       width="121.82"
       height="2.2688"
       rx="0"
       ry="0"
       id="rect47"
       style="fill:#f4f4f4;stroke:#f6f6f6;stroke-width:3.21950006;stroke-linecap:round" />
  </g>
</svg>
