<?xml version="1.0" encoding="UTF-8" standalone="no"?>
<!-- Created with Inkscape (http://www.inkscape.org/) -->

<svg
   xmlns:dc="http://purl.org/dc/elements/1.1/"
   xmlns:cc="http://creativecommons.org/ns#"
   xmlns:rdf="http://www.w3.org/1999/02/22-rdf-syntax-ns#"
   xmlns:svg="http://www.w3.org/2000/svg"
   xmlns="http://www.w3.org/2000/svg"
   xmlns:sodipodi="http://sodipodi.sourceforge.net/DTD/sodipodi-0.dtd"
   xmlns:inkscape="http://www.inkscape.org/namespaces/inkscape"
   version="1.1"
   viewBox="0 0 254 254"
   id="svg29"
   sodipodi:docname="670.svg"
   inkscape:version="0.92.4 (5da689c313, 2019-01-14)">
  <sodipodi:namedview
     pagecolor="#ffffff"
     bordercolor="#666666"
     borderopacity="1"
     objecttolerance="10"
     gridtolerance="10"
     guidetolerance="10"
     inkscape:pageopacity="0"
     inkscape:pageshadow="2"
     inkscape:window-width="1920"
     inkscape:window-height="1001"
     id="namedview31"
     showgrid="false"
     inkscape:zoom="1.3139937"
     inkscape:cx="274.00801"
     inkscape:cy="191.39254"
     inkscape:window-x="-9"
     inkscape:window-y="-9"
     inkscape:window-maximized="1"
     inkscape:current-layer="g27" />
  <defs
     id="defs7">
    <radialGradient
       id="radialGradient832"
       cx="200.06"
       cy="68.716"
       r="123.85"
       gradientTransform="matrix(4.5125 -1.3738 1.1035 3.6343 -726.65 26.637)"
       gradientUnits="userSpaceOnUse">
      <stop
         stop-color="#e6a2e5"
         offset="0"
         id="stop2"
         style="stop-color:#da71d8;stop-opacity:1" />
      <stop
         stop-color="#f1240b"
         stop-opacity=".16863"
         offset="1"
         id="stop4"
         style="stop-color:#f1240b;stop-opacity:0.125" />
    </radialGradient>
    <radialGradient
       id="radialGradient832-1"
       cx="108.69227"
       cy="58.665012"
       r="123.85"
       gradientTransform="matrix(2.2950065,-1.4289205,1.5597172,2.5069459,-419.77297,39.606569)"
       gradientUnits="userSpaceOnUse"
       fx="108.69227"
       fy="58.665012">
      <stop
         stop-color="#e2b994"
         offset="0"
         id="stop2-1"
         style="stop-color:#fe48b5;stop-opacity:0.44313726" />
      <stop
         stop-color="#c53737"
         stop-opacity=".16863"
         offset="1"
         id="stop4-1"
         style="stop-color:#ff6ba2;stop-opacity:1" />
    </radialGradient>
  </defs>
  <metadata
     id="metadata9">
    <rdf:RDF>
      <cc:Work
         rdf:about="">
        <dc:format>image/svg+xml</dc:format>
        <dc:type
           rdf:resource="http://purl.org/dc/dcmitype/StillImage" />
        <dc:title />
      </cc:Work>
    </rdf:RDF>
  </metadata>
  <g
     transform="translate(0,-43)"
     id="g27">
    <rect
       x="3.6881373"
       y="46.150002"
       width="247.7"
       height="247.7"
       rx="58.459"
       id="rect11-0"
       style="fill:#ec6464;fill-opacity:0.99500002;stroke-width:0.37694001" />
    <rect
       x="3.6881373"
       y="46.150002"
       width="247.7"
       height="247.7"
       rx="58.459"
       id="rect13-6"
       style="fill:url(#radialGradient832-1);stroke-width:0.37694001" />
    <g
       id="g25"
       style="fill:#ebebeb">
      <path
         d="m 135,224.34 v 44.579 h 61.616 V 224.34 Z m 8.1947,6.4133 h 32.931 c 0.39004,0 0.70386,0.57464 0.70386,1.2879 0,0.71319 -0.31382,1.2865 -0.70386,1.2865 h -32.931 c -0.39003,0 -0.70366,-0.57332 -0.70366,-1.2865 0,-0.71328 0.31363,-1.2879 0.70366,-1.2879 z m 0.12194,9.2192 h 32.931 c 0.39003,0 0.70387,0.57397 0.70387,1.2874 0,0.71322 -0.31384,1.287 -0.70387,1.287 h -32.931 c -0.39006,0 -0.70378,-0.57374 -0.70378,-1.287 0,-0.7134 0.31372,-1.2874 0.70378,-1.2874 z m 0.22306,9.2376 h 44.299 c 0.52479,0 0.9467,0.57476 0.9467,1.2877 0,0.7132 -0.42191,1.2869 -0.9467,1.2869 h -44.299 c -0.5245,0 -0.94719,-0.57369 -0.94719,-1.2869 0,-0.71298 0.42269,-1.2877 0.94719,-1.2877 z m -0.002,9.2812 h 44.299 c 0.52479,0 0.94717,0.57486 0.94717,1.2877 0,0.71328 -0.42238,1.2872 -0.94717,1.2872 h -44.298 c -0.52466,0 -0.94709,-0.57393 -0.94709,-1.2872 0,-0.71264 0.42218,-1.2874 0.94665,-1.2877 z"
         id="path15"
         inkscape:connector-curvature="0" />
      <path
         d="m 125.81,210.15 c -0.74421,0 -1.3427,0.74703 -1.3427,1.6752 v 22.927 c 0,0.92789 0.59847,1.6751 1.3427,1.6751 h 5.1293 v -14.986 h 68.291 v 14.986 h 5.0832 c 0.74403,0 1.3434,-0.74723 1.3434,-1.6751 v -22.927 c 0,-0.92812 -0.59935,-1.6752 -1.3434,-1.6752 z"
         id="path17"
         inkscape:connector-curvature="0" />
      <rect
         x="135.05"
         y="143.77"
         width="61.021"
         height="40.515999"
         rx="1.1736"
         ry="0.092133999"
         id="rect19" />
      <path
         d="m 49.876,70.948 c -8.261,0 -14.911,6.6503 -14.911,14.911 v 109.5 c 0,8.261 6.6503,14.912 14.911,14.912 h 51.062 c 1.7286,0 3.3851,-0.29464 4.9264,-0.83082 v -22.966 h -62.038 c -1.5406,0 -2.7811,-1.2405 -2.7811,-2.7811 v -86.659 c 0,-1.5406 1.2405,-2.7806 2.7811,-2.7806 h 63.496 c 1.5406,0 2.7746,1.24 2.7806,2.7806 l 0.28348,72.774 c 1.0505,-1.9536 2.8385,-3.3188 5.4628,-3.8261 v -80.126 c 0,-8.261 -6.6503,-14.911 -14.911,-14.911 z M 64.759,79.83 H 86.04 c 0.78599,0 1.4191,0.57319 1.4191,1.285 0,0.71181 -0.63306,1.2845 -1.4191,1.2845 H 64.759 c -0.786,0 -1.4191,-0.57269 -1.4191,-1.2845 0,-0.71182 0.63306,-1.285 1.4191,-1.285 z m 10.608,111.32 c 3.8918,-1e-5 7.0468,3.155 7.0468,7.0468 1.2e-5,3.8918 -3.1549,7.0468 -7.0468,7.0468 -3.8918,1e-5 -7.0468,-3.1549 -7.0468,-7.0468 -1.8e-5,-3.8918 3.1549,-7.0468 7.0468,-7.0468 z"
         id="path21"
         inkscape:connector-curvature="0" />
      <path
         d="m 119.36,168.68 c -6.0269,0 -10.878,5.7824 -10.878,12.965 v 41.826 c 0,7.1822 4.8515,12.965 10.878,12.965 h 2.7181 v -27.191 c 0,-0.97273 0.65699,-1.7558 1.473,-1.7558 h 83.81 c 0.81628,0 1.4732,0.78306 1.4732,1.7558 v 27.191 h 2.757 c 6.0269,0 10.878,-5.7827 10.878,-12.965 v -41.826 c 0,-7.1822 -4.8515,-12.965 -10.878,-12.965 h -13.362 v 16.932 c 0,0.73894 -0.49904,1.3333 -1.1189,1.3333 h -63.667 c -0.62002,0 -1.1194,-0.59439 -1.1194,-1.3333 V 168.68 Z m 86.318,10.004 a 2.2164,2.6413 0 0 1 2.2166,2.6413 2.2164,2.6413 0 0 1 -2.2166,2.6414 2.2164,2.6413 0 0 1 -2.2162,-2.6414 2.2164,2.6413 0 0 1 2.2162,-2.6413 z m 7.838,0 a 2.2164,2.6413 0 0 1 2.2162,2.6413 2.2164,2.6413 0 0 1 -2.2162,2.6414 2.2164,2.6413 0 0 1 -2.2167,-2.6414 2.2164,2.6413 0 0 1 2.2167,-2.6413 z"
         id="path23"
         inkscape:connector-curvature="0" />
    </g>
  </g>
</svg>
