<?xml version="1.0" encoding="UTF-8" standalone="no"?>
<!-- Created with Inkscape (http://www.inkscape.org/) -->

<svg
   xmlns:dc="http://purl.org/dc/elements/1.1/"
   xmlns:cc="http://creativecommons.org/ns#"
   xmlns:rdf="http://www.w3.org/1999/02/22-rdf-syntax-ns#"
   xmlns:svg="http://www.w3.org/2000/svg"
   xmlns="http://www.w3.org/2000/svg"
   xmlns:sodipodi="http://sodipodi.sourceforge.net/DTD/sodipodi-0.dtd"
   xmlns:inkscape="http://www.inkscape.org/namespaces/inkscape"
   version="1.1"
   viewBox="0 0 254 254"
   id="svg31"
   sodipodi:docname="890.svg"
   inkscape:version="0.92.4 (5da689c313, 2019-01-14)">
  <sodipodi:namedview
     pagecolor="#ffffff"
     bordercolor="#666666"
     borderopacity="1"
     objecttolerance="10"
     gridtolerance="10"
     guidetolerance="10"
     inkscape:pageopacity="0"
     inkscape:pageshadow="2"
     inkscape:window-width="1920"
     inkscape:window-height="1001"
     id="namedview33"
     showgrid="false"
     inkscape:zoom="0.92913386"
     inkscape:cx="127"
     inkscape:cy="127"
     inkscape:window-x="-9"
     inkscape:window-y="-9"
     inkscape:window-maximized="1"
     inkscape:current-layer="g29" />
  <defs
     id="defs7">
    <radialGradient
       id="radialGradient832"
       cx="156.92"
       cy="125.03"
       r="123.85"
       gradientTransform="matrix(1.1224 -2.4785 2.3554 1.0674 -284.62 215.9)"
       gradientUnits="userSpaceOnUse">
      <stop
         stop-color="#e6aba2"
         offset="0"
         id="stop2"
         style="stop-color:#e1988c;stop-opacity:1" />
      <stop
         stop-color="#c59b37"
         stop-opacity=".16863"
         offset="1"
         id="stop4"
         style="stop-color:#ff6666;stop-opacity:0.36470589" />
    </radialGradient>
  </defs>
  <metadata
     id="metadata9">
    <rdf:RDF>
      <cc:Work
         rdf:about="">
        <dc:format>image/svg+xml</dc:format>
        <dc:type
           rdf:resource="http://purl.org/dc/dcmitype/StillImage" />
        <dc:title />
      </cc:Work>
    </rdf:RDF>
  </metadata>
  <g
     transform="translate(0,-43)"
     id="g29">
    <rect
       x="3.0237999"
       y="46.352001"
       width="247.7"
       height="247.7"
       rx="58.459"
       id="rect11"
       style="fill:#c52a00;fill-opacity:0.995;stroke-width:0.37694001" />
    <rect
       x="3.0237999"
       y="45.821999"
       width="247.7"
       height="247.7"
       rx="58.459"
       id="rect13"
       style="fill:url(#radialGradient832);stroke-width:0.37694001" />
    <g
       id="g27"
       style="fill:#ebebeb">
      <path
         d="m 131.32,224.82 v 44.107 h 64.399 V 224.82 Z m 8.5649,6.3454 h 34.419 c 0.40767,0 0.73572,0.56856 0.73572,1.2743 0,0.70564 -0.32805,1.2729 -0.73572,1.2729 h -34.419 c -0.40764,0 -0.73551,-0.56726 -0.73551,-1.2729 0,-0.70572 0.32787,-1.2743 0.73551,-1.2743 z m 0.12741,9.1216 h 34.418 c 0.40764,0 0.73573,0.5679 0.73573,1.2738 0,0.70565 -0.32809,1.2733 -0.73573,1.2733 h -34.418 c -0.40768,0 -0.7355,-0.56768 -0.7355,-1.2733 0,-0.70585 0.32782,-1.2738 0.7355,-1.2738 z m 0.23316,9.1398 h 46.3 c 0.54845,0 0.98946,0.56867 0.98946,1.2741 0,0.70564 -0.44101,1.2733 -0.98946,1.2733 h -46.3 c -0.54815,0 -0.98997,-0.56763 -0.98997,-1.2733 0,-0.70543 0.44182,-1.2741 0.98997,-1.2741 z m -0.003,9.183 h 46.299 c 0.54842,0 0.98993,0.56876 0.98993,1.2741 0,0.70573 -0.44151,1.2736 -0.98993,1.2736 h -46.299 c -0.54846,0 -0.98986,-0.56785 -0.98986,-1.2736 0,-0.7051 0.44114,-1.2737 0.98941,-1.2741 z"
         id="path15"
         inkscape:connector-curvature="0" />
      <path
         d="m 121.95,210.78 c -0.78751,0 -1.4208,0.65302 -1.4208,1.4642 v 20.041 c 0,0.81115 0.63324,1.4642 1.4208,1.4642 h 5.4276 v -13.099 h 72.261 v 13.099 h 5.3787 c 0.78734,0 1.4215,-0.65305 1.4215,-1.4642 v -20.041 c 0,-0.81123 -0.63415,-1.4642 -1.4215,-1.4642 z"
         id="path17"
         inkscape:connector-curvature="0" />
      <path
         transform="matrix(0.26458,0,0,0.26458,0,43)"
         d="m 384.06,173.98 -207.76,209.4 0.0254,0.0274 -33.285,33.549 c -50.57,50.97 -50.248,132.71 0.72265,183.28 50.971,50.57 132.72,50.248 183.29,-0.72266 l 46.375,-46.742 v -31.787 c 0,-26.591 20.323,-47.998 45.566,-47.998 h 33.59 l 23.975,-24.164 c 0.68115,-0.68666 1.3463,-1.3811 2.0098,-2.0781 l 6.6055,-6.6582 v -77.201 c 0,-0.21579 2.1544,-0.38867 4.8301,-0.38867 h 72.154 l 5.9121,-5.959 z m 22.762,161.15 -8.2715,31.352 -8.2246,-8.1602 -76.371,76.975 40.654,0.95508 c 3.0279,-0.3447 6.17,-1.6141 8.4766,-3.8359 11.791,-11.884 15.947,-16.055 15.947,-16.055 l -6.6758,-6.623 19.783,-19.939 19.939,19.781 -19.783,19.939 -6.6856,-6.6309 -15.74,15.873 c -4.4285,4.4637 -11.519,6.7146 -17.342,6.8438 h -0.002 c -0.13633,-0.008 -43.117,-1.0137 -43.117,-1.0137 -3.0231,0.34091 -6.1552,1.6066 -8.4609,3.8164 l -24.852,25.049 c -0.0302,0.034 -0.0602,0.0596 -0.0898,0.0899 l -11.234,11.324 c 6.1052,9.089 5.1761,21.51 -2.8281,29.578 -9.124,9.1963 -23.976,9.2528 -33.172,0.12891 -9.1937,-9.1212 -9.2529,-23.972 -0.1289,-33.168 8.0028,-8.0663 20.41,-9.0973 29.541,-3.0703 l 11.438,-11.527 c 2.1989,-2.3245 3.4454,-5.4685 3.7656,-8.4941 0,0 -1.3453,-42.978 -1.3535,-43.111 -0.008,-0.34922 0.007,-0.17329 0.004,-0.006 0.0826,-5.8244 2.2734,-12.93 6.7012,-17.393 l 16.342,-16.465 c -2.5263,-5.2093 -1.6945,-11.644 2.6211,-15.994 5.46,-5.5033 14.352,-5.54 19.859,-0.0762 5.5048,5.4614 5.5415,14.358 0.082,19.861 -4.3155,4.3496 -10.746,5.2284 -15.979,2.7402 -1.9897,2.0134 -7.4025,7.4767 -16.523,16.67 -2.202,2.3249 -3.4439,5.4766 -3.7656,8.5078 l 1.2773,40.637 101.09,-101.89 -8.2129,-8.1484 z"
         id="path19"
         inkscape:connector-curvature="0" />
      <path
         d="m 134.5,70.97 -23.187,23.371 33.68,33.415 23.187,-23.371 z m 1.5912,11.496 6.2493,6.2002 -6.4369,6.488 -6.2493,-6.2002 z m 14.327,14.214 6.2493,6.2002 -6.4369,6.488 -6.2493,-6.2002 z"
         id="path21"
         inkscape:connector-curvature="0" />
      <path
         d="m 113.28,170.29 c -6.5378,0 -11.801,5.4818 -11.801,12.291 v 39.651 c 0,6.8087 5.2632,12.291 11.801,12.291 h 2.9489 v -25.777 c 0,-0.92209 0.71244,-1.6644 1.5978,-1.6644 h 90.919 c 0.88541,0 1.5982,0.74233 1.5982,1.6644 v 25.777 h 2.9908 c 6.538,0 11.801,-5.4821 11.801,-12.291 v -39.651 c 0,-6.8088 -5.2632,-12.291 -11.801,-12.291 h -14.496 v 16.052 c 0,0.70056 -0.54119,1.2641 -1.2137,1.2641 h -69.067 c -0.67285,0 -1.2143,-0.5635 -1.2143,-1.2641 V 170.29 Z m 93.64,9.4842 a 2.4043,2.504 0 0 1 2.4044,2.504 2.4043,2.504 0 0 1 -2.4044,2.504 2.4043,2.504 0 0 1 -2.4045,-2.504 2.4043,2.504 0 0 1 2.4045,-2.504 z m 8.5025,0 a 2.4043,2.504 0 0 1 2.4044,2.504 2.4043,2.504 0 0 1 -2.4044,2.504 2.4043,2.504 0 0 1 -2.4045,-2.504 2.4043,2.504 0 0 1 2.4045,-2.504 z"
         id="path23"
         inkscape:connector-curvature="0" />
      <rect
         x="131.31"
         y="142.13"
         width="63.5"
         height="41.580002"
         rx="1.2213"
         ry="0.094554"
         id="rect25" />
    </g>
  </g>
</svg>
