<?xml version="1.0" encoding="UTF-8" standalone="no"?>
<!-- Created with Inkscape (http://www.inkscape.org/) -->

<svg
   xmlns:dc="http://purl.org/dc/elements/1.1/"
   xmlns:cc="http://creativecommons.org/ns#"
   xmlns:rdf="http://www.w3.org/1999/02/22-rdf-syntax-ns#"
   xmlns:svg="http://www.w3.org/2000/svg"
   xmlns="http://www.w3.org/2000/svg"
   xmlns:sodipodi="http://sodipodi.sourceforge.net/DTD/sodipodi-0.dtd"
   xmlns:inkscape="http://www.inkscape.org/namespaces/inkscape"
   width="123.46mm"
   height="128.64999mm"
   viewBox="0 0 123.46 128.64999"
   version="1.1"
   id="svg3257"
   inkscape:version="0.92.4 (5da689c313, 2019-01-14)"
   sodipodi:docname="copy.svg">
  <defs
     id="defs3251" />
  <sodipodi:namedview
     id="base"
     pagecolor="#ffffff"
     bordercolor="#666666"
     borderopacity="1.0"
     inkscape:pageopacity="0.0"
     inkscape:pageshadow="2"
     inkscape:zoom="0.7"
     inkscape:cx="577.41022"
     inkscape:cy="373.37175"
     inkscape:document-units="mm"
     inkscape:current-layer="layer1"
     showgrid="false"
     inkscape:window-width="1920"
     inkscape:window-height="1001"
     inkscape:window-x="-9"
     inkscape:window-y="-9"
     inkscape:window-maximized="1"
     inkscape:pagecheckerboard="true" />
  <metadata
     id="metadata3254">
    <rdf:RDF>
      <cc:Work
         rdf:about="">
        <dc:format>image/svg+xml</dc:format>
        <dc:type
           rdf:resource="http://purl.org/dc/dcmitype/StillImage" />
        <dc:title></dc:title>
      </cc:Work>
    </rdf:RDF>
  </metadata>
  <g
     inkscape:label="Layer 1"
     inkscape:groupmode="layer"
     id="layer1"
     transform="translate(0,-168.35)">
    <path
       style="fill:#ffffff;fill-opacity:1;stroke:#09000f;stroke-width:5.49045897;stroke-miterlimit:4;stroke-dasharray:none;stroke-opacity:1"
       d="m 41.088621,171.1336 c -2.563809,0 -4.627626,2.06381 -4.627626,4.62763 v 10.13995 H 7.3733678 c -2.5638115,0 -4.6281383,2.06381 -4.6281383,4.62762 v 99.09834 c 0,2.56382 2.0643268,4.62763 4.6281383,4.62763 H 82.300576 c 2.563812,0 4.628127,-2.06381 4.628127,-4.62763 v -10.13995 h 29.087557 c 2.56382,0 4.62763,-2.06381 4.62763,-4.62762 v -88.57392 l -16.1954,-15.15205 z"
       id="rect3816-7"
       inkscape:connector-curvature="0" />
    <rect
       style="fill:none;fill-opacity:1;stroke:#09000f;stroke-width:3.28869033;stroke-miterlimit:4;stroke-dasharray:none;stroke-opacity:1"
       id="rect3818-2"
       width="16.795307"
       height="2.1269109"
       x="19.564106"
       y="218.70665"
       rx="0"
       ry="0" />
    <rect
       style="fill:none;fill-opacity:1;stroke:#09000f;stroke-width:3.22374296;stroke-miterlimit:4;stroke-dasharray:none;stroke-opacity:1"
       id="rect3818-8-4"
       width="15.66026"
       height="2.1918592"
       x="19.340458"
       y="232.09212"
       rx="0"
       ry="0" />
    <rect
       style="fill:none;fill-opacity:1;stroke:#09000f;stroke-width:3.28344417;stroke-miterlimit:4;stroke-dasharray:none;stroke-opacity:1"
       id="rect3818-9-8"
       width="16.700552"
       height="2.1321578"
       x="19.55928"
       y="245.7291"
       rx="0"
       ry="0" />
    <rect
       style="fill:none;fill-opacity:1;stroke:#09000f;stroke-width:3.22374201;stroke-miterlimit:4;stroke-dasharray:none;stroke-opacity:1"
       id="rect3818-6-9"
       width="15.660267"
       height="2.1918597"
       x="19.434937"
       y="259.21201"
       rx="0"
       ry="0" />
    <path
       style="fill:#ffffff;fill-opacity:1;stroke:#09000f;stroke-width:5.49045897;stroke-miterlimit:4;stroke-dasharray:none;stroke-opacity:1"
       d="M 103.18035,171.1336 H 41.088621 c -2.563809,0 -4.627626,2.06381 -4.627626,4.62763 v 99.09834 c 0,2.56381 2.063817,4.62762 4.627626,4.62762 h 74.927639 c 2.56382,0 4.62763,-2.06381 4.62763,-4.62762 v -86.85878 c -0.0164,0.0445 -0.0101,0.0981 -0.0284,0.14159 -0.15568,0.36928 -0.38115,0.70154 -0.65991,0.9803 -0.27877,0.27877 -0.61103,0.50424 -0.9803,0.65991 -0.36928,0.15567 -0.77531,0.24133 -1.20251,0.24133 h -13.67206 c -0.42721,0 -0.83375,-0.0857 -1.20303,-0.24133 -0.36927,-0.15567 -0.70153,-0.38114 -0.9803,-0.65991 -0.27876,-0.27876 -0.50423,-0.61102 -0.6599,-0.9803 -0.15568,-0.36928 -0.24133,-0.77582 -0.24133,-1.20302 v -12.90619 c 0,-0.42721 0.0857,-0.83375 0.24133,-1.20303 0.15567,-0.36928 0.38114,-0.70102 0.6599,-0.97979 0.27877,-0.27876 0.61103,-0.50423 0.9803,-0.6599 0.0868,-0.0366 -2.85541,0.32615 -2.76476,0.29745 z"
       id="path16551"
       inkscape:connector-curvature="0"
       sodipodi:nodetypes="cssssssccscsscscssccccc" />
    <rect
       style="fill:#ffffff;fill-opacity:1;stroke:#09000f;stroke-width:4.23310328;stroke-miterlimit:4;stroke-dasharray:none;stroke-opacity:1"
       id="rect3818"
       width="50.050415"
       height="1.1824992"
       x="53.453785"
       y="204.25067"
       rx="0"
       ry="0" />
    <rect
       style="fill:#ffffff;fill-opacity:1;stroke:#09000f;stroke-width:4.23310328;stroke-miterlimit:4;stroke-dasharray:none;stroke-opacity:1"
       id="rect3818-8"
       width="50.050419"
       height="1.1824992"
       x="53.262592"
       y="217.66866"
       rx="0"
       ry="0" />
    <rect
       style="fill:#ffffff;fill-opacity:1;stroke:#09000f;stroke-width:4.23310328;stroke-miterlimit:4;stroke-dasharray:none;stroke-opacity:1"
       id="rect3818-9"
       width="50.050419"
       height="1.1824992"
       x="53.451572"
       y="231.27571"
       rx="0"
       ry="0" />
    <rect
       style="fill:#ffffff;fill-opacity:1;stroke:#09000f;stroke-width:4.23310328;stroke-miterlimit:4;stroke-dasharray:none;stroke-opacity:1"
       id="rect3818-6"
       width="50.050419"
       height="1.1824992"
       x="53.357075"
       y="244.78836"
       rx="0"
       ry="0" />
    <path
       style="fill:#eeeeee;fill-opacity:1;stroke:#09000f;stroke-width:5.49045897;stroke-miterlimit:4;stroke-dasharray:none;stroke-opacity:1"
       d="m 103.18035,171.1336 c -0.0906,0.0287 -0.1959,0.0203 -0.28267,0.0569 -0.36927,0.15567 -0.70153,0.38114 -0.9803,0.6599 -0.27876,0.27877 -0.50423,0.61051 -0.6599,0.97979 -0.15568,0.36928 -0.24133,0.77582 -0.24133,1.20303 v 12.90619 c 0,0.4272 0.0857,0.83374 0.24133,1.20302 0.15567,0.36928 0.38114,0.70154 0.6599,0.9803 0.27877,0.27877 0.61103,0.50424 0.9803,0.65991 0.36928,0.15567 0.77582,0.24133 1.20303,0.24133 h 13.67204 c 0.4272,0 0.83323,-0.0857 1.20251,-0.24133 0.36927,-0.15567 0.70153,-0.38114 0.9803,-0.65991 0.27876,-0.27876 0.50423,-0.61102 0.65991,-0.9803 0.0183,-0.0435 0.0121,-0.0971 0.0284,-0.14159 v -1.71514 l -16.1954,-15.15205 z"
       id="rect3816"
       inkscape:connector-curvature="0" />
  </g>
</svg>
