<?xml version="1.0" encoding="UTF-8" standalone="no"?>
<!-- Created with Inkscape (http://www.inkscape.org/) -->

<svg
   xmlns:dc="http://purl.org/dc/elements/1.1/"
   xmlns:cc="http://creativecommons.org/ns#"
   xmlns:rdf="http://www.w3.org/1999/02/22-rdf-syntax-ns#"
   xmlns:svg="http://www.w3.org/2000/svg"
   xmlns="http://www.w3.org/2000/svg"
   xmlns:xlink="http://www.w3.org/1999/xlink"
   xmlns:sodipodi="http://sodipodi.sourceforge.net/DTD/sodipodi-0.dtd"
   xmlns:inkscape="http://www.inkscape.org/namespaces/inkscape"
   width="254mm"
   height="254mm"
   viewBox="0 0 254 254"
   version="1.1"
   id="svg8"
   inkscape:version="0.92.4 (5da689c313, 2019-01-14)"
   sodipodi:docname="fax.svg">
  <defs
     id="defs2">
    <linearGradient
       inkscape:collect="always"
       id="linearGradient833-1">
      <stop
         style="stop-color:#a2e6af;stop-opacity:1"
         offset="0"
         id="stop829" />
      <stop
         style="stop-color:#37c570;stop-opacity:0.17910448"
         offset="1"
         id="stop831" />
    </linearGradient>
    <radialGradient
       inkscape:collect="always"
       xlink:href="#linearGradient833-1"
       id="radialGradient879"
       gradientUnits="userSpaceOnUse"
       gradientTransform="matrix(2.4635491,-2.2746524,2.2617694,2.4518605,-475.43901,223.63516)"
       cx="185.2729"
       cy="81.78727"
       fx="185.2729"
       fy="81.78727"
       r="123.85001" />
    <radialGradient
       inkscape:collect="always"
       xlink:href="#linearGradient833-1-8"
       id="radialGradient832-3"
       cx="111.19833"
       cy="47.336624"
       fx="111.19833"
       fy="47.336624"
       r="123.85001"
       gradientTransform="matrix(2.5673982,-1.5003716,1.4887745,2.5496687,-431.9686,41.881877)"
       gradientUnits="userSpaceOnUse" />
    <linearGradient
       inkscape:collect="always"
       id="linearGradient833-1-8">
      <stop
         style="stop-color:#e2b994;stop-opacity:1"
         offset="0"
         id="stop829-4" />
      <stop
         style="stop-color:#c53737;stop-opacity:0.16862746"
         offset="1"
         id="stop831-65" />
    </linearGradient>
  </defs>
  <sodipodi:namedview
     id="base"
     pagecolor="#ffffff"
     bordercolor="#666666"
     borderopacity="1.0"
     inkscape:pageopacity="0.0"
     inkscape:pageshadow="2"
     inkscape:zoom="0.24748738"
     inkscape:cx="-998.28529"
     inkscape:cy="84.009164"
     inkscape:document-units="mm"
     inkscape:current-layer="layer1"
     showgrid="true"
     inkscape:window-width="1920"
     inkscape:window-height="1001"
     inkscape:window-x="-9"
     inkscape:window-y="-9"
     inkscape:window-maximized="1"
     inkscape:pagecheckerboard="false"
     showguides="false"
     inkscape:snap-others="false"
     inkscape:snap-nodes="false">
    <inkscape:grid
       type="xygrid"
       id="grid918"
       spacingx="3.96875"
       spacingy="3.9952083" />
  </sodipodi:namedview>
  <metadata
     id="metadata5">
    <rdf:RDF>
      <cc:Work
         rdf:about="">
        <dc:format>image/svg+xml</dc:format>
        <dc:type
           rdf:resource="http://purl.org/dc/dcmitype/StillImage" />
        <dc:title />
      </cc:Work>
    </rdf:RDF>
  </metadata>
  <g
     inkscape:label="Layer 1"
     inkscape:groupmode="layer"
     id="layer1"
     transform="translate(0,-43)">
    <rect
       style="fill:#37c570;fill-opacity:1;stroke-width:0.37693506"
       id="rect12"
       width="247.70001"
       height="247.70001"
       x="3.0238037"
       y="46.351601"
       rx="58.458519" />
    <rect
       style="fill:url(#radialGradient879);fill-opacity:1;stroke-width:0.37693506"
       id="rect12-1"
       width="247.70001"
       height="247.7"
       x="3.0238035"
       y="46.351601"
       rx="58.458519" />
    <rect
       style="fill:#e1c11b;fill-opacity:0.90588235;stroke-width:0.37693506"
       id="rect12-8"
       width="247.70001"
       height="247.70001"
       x="3.0238037"
       y="46.351601"
       rx="58.458519" />
    <rect
       style="fill:url(#radialGradient832-3);fill-opacity:1;stroke-width:0.37693506"
       id="rect12-1-86"
       width="247.70001"
       height="247.7"
       x="3.0238035"
       y="46.351601"
       rx="58.458519" />
    <path
       style="opacity:1;fill:#ebebeb;fill-opacity:1;stroke:#ebebeb;stroke-width:3.41599965;stroke-linecap:round;stroke-miterlimit:4;stroke-dasharray:none;stroke-opacity:1"
       d="m 50.162323,88.761946 c -4.987739,0 -9.003056,4.015816 -9.003056,9.003529 v 17.941015 c 0,3.5921 2.083197,6.67935 5.111829,8.12611 v 63.6819 c -2.508885,1.54236 -4.175971,4.31121 -4.175971,7.48431 v 18.38698 c 0,4.8645 3.916362,8.78036 8.780859,8.78036 H 68.08216 c 4.864481,0 8.780344,-3.91586 8.780344,-8.78036 v -18.38698 c 0,-3.64062 -2.193753,-6.74956 -5.336622,-8.08375 v -63.00494 c 3.120167,-1.41117 5.281845,-4.54487 5.281845,-8.20363 V 97.765475 c 0,-4.987713 -4.015835,-9.003529 -9.003586,-9.003529 z m 33.442923,11.565634 v 17.60099 c 0,4.0359 -1.905728,7.60848 -4.868439,9.8764 v 55.06951 c 3.198381,2.24464 5.282885,5.95846 5.282885,10.17974 v 13.84101 h 4.446238 v -27.83137 c 0,-0.0258 0.02061,-0.0465 0.04703,-0.0465 h 127.24493 c 0.0262,0 0.0476,0.0207 0.0476,0.0465 v 27.30272 c 4.75676,-1.48018 8.19176,-5.90467 8.19176,-11.16107 v -83.1882 c 0,-6.47603 -5.21366,-11.68973 -11.68973,-11.68973 z m -49.219735,1.83193 c -3.247126,2.07243 -5.394511,5.70406 -5.394511,9.8578 v 83.1882 c 0,4.32834 2.330689,8.09021 5.808954,10.11101 v -12.2623 c 0,-3.83187 1.71831,-7.24629 4.427643,-9.52294 v -55.7475 c -2.94767,-2.26887 -4.842086,-5.83107 -4.842086,-9.85521 z m 64.492168,7.15202 H 203.78394 c 1.67168,0 3.0179,1.34567 3.0179,3.01738 v 26.61957 c 0,1.67168 -1.34622,3.0179 -3.0179,3.0179 H 98.877679 c -1.671681,0 -3.017375,-1.34622 -3.017375,-3.0179 v -26.61957 c 0,-1.67171 1.345694,-3.01738 3.017375,-3.01738 z m 54.150171,37.14553 h 19.16525 v 8.55349 h -19.16525 z m 21.7005,0 h 19.16524 v 8.55349 h -19.16524 z m -66.20372,0.0791 h 6.77426 c 0.4691,0 0.84646,0.37739 0.84646,0.84646 v 6.77426 c 0,0.4691 -0.37736,0.84646 -0.84646,0.84646 h -6.77426 c -0.4691,0 -0.84646,-0.37736 -0.84646,-0.84646 v -6.77426 c 0,-0.46907 0.37736,-0.84646 0.84646,-0.84646 z m 9.525,0 h 6.77375 c 0.46909,0 0.84697,0.37739 0.84697,0.84646 v 6.77426 c 0,0.4691 -0.37788,0.84646 -0.84697,0.84646 h -6.77375 c -0.4691,0 -0.84698,-0.37736 -0.84698,-0.84646 v -6.77426 c 0,-0.46907 0.37788,-0.84646 0.84698,-0.84646 z m 9.52501,0 h 6.77373 c 0.46911,0 0.84699,0.37739 0.84699,0.84646 v 6.77426 c 0,0.4691 -0.37788,0.84646 -0.84699,0.84646 h -6.77373 c -0.46911,0 -0.84699,-0.37736 -0.84699,-0.84646 v -6.77426 c 0,-0.46907 0.37788,-0.84646 0.84699,-0.84646 z m 25.45321,9.44593 h 19.16525 v 8.55349 h -19.16525 z m 21.7005,0 h 19.16524 v 8.55349 h -19.16524 z m -66.20372,0.0791 h 6.77426 c 0.4691,0 0.84646,0.37738 0.84646,0.84646 v 6.77426 c 0,0.4691 -0.37736,0.84646 -0.84646,0.84646 h -6.77426 c -0.4691,0 -0.84646,-0.37736 -0.84646,-0.84646 v -6.77426 c 0,-0.46908 0.37736,-0.84646 0.84646,-0.84646 z m 9.525,0 h 6.77375 c 0.46909,0 0.84697,0.3774 0.84697,0.84646 v 6.77426 c 0,0.17591 -0.053,0.33878 -0.14418,0.47388 -0.0304,0.045 -0.0651,0.0868 -0.10335,0.12505 -0.0383,0.0384 -0.0799,0.0729 -0.12505,0.10335 -0.13514,0.0911 -0.29848,0.14418 -0.47439,0.14418 h -6.77375 c -0.17606,0 -0.33923,-0.0529 -0.47439,-0.14418 -0.0203,-0.0137 -0.0374,-0.0312 -0.0563,-0.0465 -0.0232,-0.0187 -0.0477,-0.0358 -0.0687,-0.0568 -0.0172,-0.0172 -0.0308,-0.0377 -0.0465,-0.0563 -0.12375,-0.14707 -0.20102,-0.33445 -0.20102,-0.5426 v -6.77426 c 0,-0.23451 0.0944,-0.44595 0.24753,-0.59893 0.0382,-0.0382 0.0802,-0.073 0.12506,-0.10335 0.045,-0.0304 0.0935,-0.0567 0.14418,-0.078 0.10137,-0.0427 0.21294,-0.0661 0.33021,-0.0661 z m 9.52501,0 h 6.77373 c 0.46911,0 0.84699,0.3774 0.84699,0.84646 v 6.77426 c 0,0.4691 -0.37788,0.84646 -0.84699,0.84646 h -6.77373 c -0.46911,0 -0.84699,-0.37736 -0.84699,-0.84646 v -6.77426 c 0,-0.46906 0.37788,-0.84646 0.84699,-0.84646 z m -19.04949,9.26042 h 6.77374 c 0.4691,0 0.84698,0.37738 0.84698,0.84645 v 6.77427 c 0,0.4691 -0.37788,0.84646 -0.84698,0.84646 h -6.77374 c -0.4691,0 -0.84698,-0.37736 -0.84698,-0.84646 v -6.77427 c 0,-0.46907 0.37788,-0.84645 0.84698,-0.84645 z m 9.52448,0 h 6.77426 c 0.4691,0 0.84646,0.37739 0.84646,0.84645 v 6.77427 c 0,0.4691 -0.37736,0.84646 -0.84646,0.84646 h -6.77426 c -0.4691,0 -0.84646,-0.37736 -0.84646,-0.84646 v -6.77427 c 0,-0.46906 0.37736,-0.84645 0.84646,-0.84645 z m 9.52501,0 h 6.77373 c 0.46911,0 0.84699,0.3774 0.84699,0.84645 v 6.77427 c 0,0.4691 -0.37788,0.84646 -0.84699,0.84646 h -6.77373 c -0.46911,0 -0.84699,-0.37736 -0.84699,-0.84646 v -6.77427 c 0,-0.46905 0.37788,-0.84645 0.84699,-0.84645 z m 25.45321,0.18551 h 19.16525 v 8.55348 h -19.16525 z m 21.7005,0 h 19.16524 v 8.55348 h -19.16524 z"
       id="rect840"
       inkscape:connector-curvature="0"
       sodipodi:nodetypes="sssccssssssccsssscsccsccsssscsssccsscsccscsssssssssccccccccccsssssssssssssssssssssssssssccccccccccssssssssssssscccssccccsscccsssssssssssscsssssssssssssssssssssssscccccccccc" />
    <path
       style="opacity:1;fill:#ebebeb;fill-opacity:1;stroke:#ebebeb;stroke-width:3.09497309;stroke-linecap:round;stroke-miterlimit:4;stroke-dasharray:none;stroke-opacity:1"
       d="m 194.27289,200.02485 -85.8697,0.007 c -0.87302,5e-5 -2.0128,1.31078 -2.0128,2.29856 v 6.58513 l 0.0455,7.34838 v 35.84382 c 0,0.81981 0.678,1.47948 1.52032,1.47948 h 86.49447 c 0.84234,0 1.52084,-0.65967 1.52084,-1.47948 v -35.84383 l 0.008,-4.30722 -0.0434,-10.40247 c -0.004,-0.98777 -0.78994,-1.52971 -1.66295,-1.52963 z m -75.45225,8.39226 h 38.78989 c 1.42653,0 2.57504,1.14851 2.57504,2.57504 0,1.42652 -1.14851,2.57503 -2.57504,2.57503 h -38.78989 c -1.42653,0 -2.57504,-1.14851 -2.57504,-2.57503 0,-1.42653 1.14851,-2.57504 2.57504,-2.57504 z m 0,10.48308 h 38.78989 c 1.42653,0 2.57504,1.14851 2.57504,2.57504 0,1.42652 -1.14851,2.57503 -2.57504,2.57503 h -38.78989 c -1.42653,0 -2.57504,-1.14851 -2.57504,-2.57503 0,-1.42653 1.14851,-2.57504 2.57504,-2.57504 z m 0,10.31875 h 63.83074 c 1.42653,0 2.57504,1.14851 2.57504,2.57504 0,1.42653 -1.14851,2.57503 -2.57504,2.57503 h -63.83074 c -1.42653,0 -2.57504,-1.1485 -2.57504,-2.57503 0,-1.42653 1.14851,-2.57504 2.57504,-2.57504 z m 0,11.1125 h 63.83074 c 1.42653,0 2.57504,1.14851 2.57504,2.57504 0,1.42653 -1.14851,2.57452 -2.57504,2.57452 h -63.83074 c -1.42653,0 -2.57504,-1.14799 -2.57504,-2.57452 0,-1.42653 1.14851,-2.57504 2.57504,-2.57504 z"
       id="rect840-0"
       inkscape:connector-curvature="0" />
    <path
       style="opacity:1;fill:#ebebeb;fill-opacity:1;stroke:none;stroke-width:4.41171026;stroke-miterlimit:4;stroke-dasharray:none;stroke-opacity:1"
       d="m 93.638352,184.40704 c -0.02421,0 -0.0434,0.0155 -0.0434,0.0348 v 24.43072 c 0,0.0193 0.019,0.0348 0.0434,0.0348 h 7.848638 v -12.3631 c 0,-0.74599 0.75745,-1.34659 1.69884,-1.34659 h 96.66864 c 0.94141,0 1.69935,0.6006 1.69935,1.34659 v 12.3631 h 8.64636 c 0.0242,0 0.0438,-0.0156 0.0438,-0.0348 v -24.43072 c 0,-0.0193 -0.0198,-0.0348 -0.0438,-0.0348 z"
       id="rect4922-3-0"
       inkscape:connector-curvature="0" />
  </g>
</svg>
