<?xml version="1.0" encoding="UTF-8" standalone="no"?>
<!-- Created with Inkscape (http://www.inkscape.org/) -->

<svg
   xmlns:dc="http://purl.org/dc/elements/1.1/"
   xmlns:cc="http://creativecommons.org/ns#"
   xmlns:rdf="http://www.w3.org/1999/02/22-rdf-syntax-ns#"
   xmlns:svg="http://www.w3.org/2000/svg"
   xmlns="http://www.w3.org/2000/svg"
   xmlns:xlink="http://www.w3.org/1999/xlink"
   xmlns:sodipodi="http://sodipodi.sourceforge.net/DTD/sodipodi-0.dtd"
   xmlns:inkscape="http://www.inkscape.org/namespaces/inkscape"
   width="254mm"
   height="254mm"
   viewBox="0 0 254 254"
   version="1.1"
   id="svg8"
   inkscape:version="0.92.4 (5da689c313, 2019-01-14)"
   sodipodi:docname="usb-print.svg">
  <defs
     id="defs2">
    <linearGradient
       inkscape:collect="always"
       id="linearGradient833-1">
      <stop
         style="stop-color:#e6aba2;stop-opacity:1"
         offset="0"
         id="stop829" />
      <stop
         style="stop-color:#c59b37;stop-opacity:0.16862746"
         offset="1"
         id="stop831" />
    </linearGradient>
    <radialGradient
       inkscape:collect="always"
       xlink:href="#linearGradient833-1"
       id="radialGradient832"
       cx="156.92148"
       cy="125.02837"
       fx="156.92148"
       fy="125.02837"
       r="123.85001"
       gradientTransform="matrix(1.1223634,-2.4784823,2.3553505,1.0674263,-284.6207,215.90134)"
       gradientUnits="userSpaceOnUse" />
  </defs>
  <sodipodi:namedview
     id="base"
     pagecolor="#ffffff"
     bordercolor="#666666"
     borderopacity="1.0"
     inkscape:pageopacity="0.0"
     inkscape:pageshadow="2"
     inkscape:zoom="0.49497474"
     inkscape:cx="500.32682"
     inkscape:cy="615.62211"
     inkscape:document-units="mm"
     inkscape:current-layer="layer1"
     showgrid="true"
     inkscape:window-width="960"
     inkscape:window-height="1001"
     inkscape:window-x="-9"
     inkscape:window-y="-9"
     inkscape:window-maximized="0"
     inkscape:pagecheckerboard="false"
     inkscape:snap-nodes="false" />
  <metadata
     id="metadata5">
    <rdf:RDF>
      <cc:Work
         rdf:about="">
        <dc:format>image/svg+xml</dc:format>
        <dc:type
           rdf:resource="http://purl.org/dc/dcmitype/StillImage" />
        <dc:title></dc:title>
      </cc:Work>
    </rdf:RDF>
  </metadata>
  <g
     inkscape:label="Layer 1"
     inkscape:groupmode="layer"
     id="layer1"
     transform="translate(0,-43)">
    <rect
       style="fill:#c54637;fill-opacity:0.99500002;stroke-width:0.37693506"
       id="rect12"
       width="247.70001"
       height="247.70001"
       x="3.0238037"
       y="46.351601"
       rx="58.458519" />
    <rect
       style="fill:url(#radialGradient832);fill-opacity:1;stroke-width:0.37693506"
       id="rect12-1"
       width="247.70001"
       height="247.7"
       x="3.0238035"
       y="45.822433"
       rx="58.458519" />
    <path
       style="opacity:1;fill:#ebebeb;fill-opacity:1;stroke:none;stroke-width:2.61282086;stroke-miterlimit:4;stroke-dasharray:none;stroke-opacity:1"
       d="m 131.3243,224.81681 v 44.10731 h 64.39898 v -44.10731 z m 8.56492,6.3454 h 34.41889 c 0.40767,0 0.73572,0.56856 0.73572,1.27428 0,0.70564 -0.32805,1.2729 -0.73572,1.2729 h -34.41889 c -0.40764,0 -0.73551,-0.56726 -0.73551,-1.2729 0,-0.70572 0.32787,-1.27428 0.73551,-1.27428 z m 0.12741,9.12162 h 34.41831 c 0.40764,0 0.73573,0.5679 0.73573,1.27375 0,0.70565 -0.32809,1.27333 -0.73573,1.27333 h -34.41831 c -0.40768,0 -0.7355,-0.56768 -0.7355,-1.27333 0,-0.70585 0.32782,-1.27375 0.7355,-1.27375 z m 0.23316,9.13981 h 46.2996 c 0.54845,0 0.98946,0.56867 0.98946,1.2741 0,0.70564 -0.44101,1.27327 -0.98946,1.27327 h -46.2996 c -0.54815,0 -0.98997,-0.56763 -0.98997,-1.27327 0,-0.70543 0.44182,-1.2741 0.98997,-1.2741 z m -0.003,9.18296 h 4.5e-4 46.29904 c 0.54842,0 0.98993,0.56876 0.98993,1.27408 0,0.70573 -0.44151,1.27358 -0.98993,1.27358 h -46.29897 c -0.54846,0 -0.98986,-0.56785 -0.98986,-1.27358 0,-0.7051 0.44114,-1.27373 0.98941,-1.27408 z"
       id="path836"
       inkscape:connector-curvature="0" />
    <path
       style="opacity:1;fill:#ebebeb;fill-opacity:1;stroke:none;stroke-width:2.62893939;stroke-miterlimit:4;stroke-dasharray:none;stroke-opacity:1"
       d="m 121.94751,210.77705 c -0.78751,0 -1.42075,0.65302 -1.42075,1.46425 v 20.04137 c 0,0.81115 0.63324,1.4642 1.42075,1.4642 h 5.42759 v -13.09934 h 72.26143 v 13.09934 h 5.37872 c 0.78734,0 1.42149,-0.65305 1.42149,-1.4642 V 212.2413 c 0,-0.81123 -0.63415,-1.46425 -1.42149,-1.46425 z"
       id="rect4922"
       inkscape:connector-curvature="0" />
    <path
       style="opacity:1;fill:#ebebeb;fill-opacity:1;stroke:none;stroke-width:9.53032112;stroke-linecap:round;stroke-miterlimit:4;stroke-dasharray:none;stroke-opacity:1"
       d="m 384.06445,173.98438 -207.75781,209.40429 0.0254,0.0274 -33.28515,33.54882 c -50.5696,50.97049 -50.247987,132.71347 0.72265,183.28321 50.97063,50.56966 132.7175,50.24786 183.28711,-0.72266 l 46.375,-46.74219 v -31.78711 c 0,-26.59086 20.32264,-47.99804 45.56641,-47.99804 h 33.58984 l 23.97461,-24.16407 c 0.68115,-0.68666 1.34627,-1.38106 2.00977,-2.07812 l 6.60546,-6.6582 v -77.20118 c 0,-0.21579 2.15445,-0.38867 4.83008,-0.38867 h 72.1543 l 5.91211,-5.95898 z m 22.76172,161.15429 -8.27148,31.35156 -8.22461,-8.16015 -76.3711,76.97461 40.6543,0.95508 c 3.02791,-0.3447 6.16996,-1.61411 8.47656,-3.83594 11.7906,-11.8842 15.94727,-16.05469 15.94727,-16.05469 l -6.67578,-6.62305 19.7832,-19.93945 19.93945,19.78125 -19.7832,19.93945 -6.68555,-6.63086 -15.74023,15.87305 c -4.4285,4.46366 -11.51871,6.7146 -17.3418,6.84375 h -0.002 c -0.13633,-0.008 -43.11719,-1.01367 -43.11719,-1.01367 -3.02313,0.34091 -6.15522,1.60663 -8.46094,3.81641 l -24.85156,25.04882 c -0.0302,0.034 -0.0602,0.0596 -0.0898,0.0899 l -11.23438,11.32422 c 6.10524,9.08904 5.17614,21.5103 -2.82812,29.57812 -9.12402,9.19631 -23.97556,9.25276 -33.17188,0.12891 -9.19369,-9.12125 -9.25289,-23.97159 -0.1289,-33.16797 8.00285,-8.06627 20.41048,-9.09734 29.54101,-3.07031 l 11.4375,-11.52735 c 2.19887,-2.32452 3.44543,-5.46848 3.76563,-8.49414 0,0 -1.34527,-42.97798 -1.35352,-43.11133 -0.008,-0.34922 0.007,-0.17329 0.004,-0.006 0.0826,-5.82444 2.27338,-12.92959 6.70117,-17.39257 l 16.3418,-16.46485 c -2.52632,-5.20932 -1.69446,-11.64439 2.62109,-15.99414 5.45996,-5.50329 14.35217,-5.54004 19.85938,-0.0762 5.50478,5.46142 5.54153,14.35845 0.082,19.86133 -4.3155,4.34959 -10.74621,5.22845 -15.97852,2.74023 -1.98969,2.01343 -7.40252,7.47671 -16.52344,16.66992 -2.20198,2.32494 -3.44389,5.47664 -3.76562,8.50782 l 1.27734,40.63672 101.0918,-101.89454 -8.21289,-8.14843 z"
       transform="matrix(0.26458333,0,0,0.26458333,0,43)"
       id="rect1462"
       inkscape:connector-curvature="0" />
    <path
       inkscape:connector-curvature="0"
       style="opacity:1;fill:#ebebeb;fill-opacity:1;stroke:none;stroke-width:2.67133188;stroke-linecap:round;stroke-miterlimit:4;stroke-dasharray:none;stroke-opacity:1"
       d="m 134.50283,70.970312 -23.18705,23.370886 33.68042,33.415452 23.18704,-23.37087 z m 1.59119,11.496454 6.24933,6.200162 -6.43692,6.487955 -6.24933,-6.200162 z m 14.32687,14.214145 6.24932,6.200169 -6.43691,6.48796 -6.24932,-6.20018 z"
       id="rect1462-7" />
    <path
       style="opacity:1;fill:#ebebeb;fill-opacity:1;stroke:none;stroke-width:2.65745425;stroke-miterlimit:4;stroke-dasharray:none;stroke-opacity:0.19402986"
       d="m 113.27762,170.28535 c -6.53777,0 -11.801,5.48176 -11.801,12.29061 v 39.65107 c 0,6.80866 5.26323,12.29074 11.801,12.29074 h 2.94887 v -25.77731 c 0,-0.92209 0.71244,-1.66442 1.59782,-1.66442 h 90.91923 c 0.88541,0 1.59824,0.74233 1.59824,1.66442 v 25.77731 h 2.99078 c 6.53796,0 11.80111,-5.48208 11.80111,-12.29074 v -39.65107 c 0,-6.80885 -5.26315,-12.29061 -11.80111,-12.29061 H 198.8365 v 16.05189 c 0,0.70056 -0.54119,1.26406 -1.21374,1.26406 h -69.06737 c -0.67285,0 -1.21428,-0.5635 -1.21428,-1.26406 v -16.05189 z m 93.63976,9.48422 a 2.4043406,2.5039518 0 0 1 2.40443,2.504 2.4043406,2.5039518 0 0 1 -2.40443,2.50403 2.4043406,2.5039518 0 0 1 -2.40446,-2.50403 2.4043406,2.5039518 0 0 1 2.40446,-2.504 z m 8.50251,0 a 2.4043404,2.5039516 0 0 1 2.40436,2.504 2.4043404,2.5039516 0 0 1 -2.40436,2.50403 2.4043404,2.5039516 0 0 1 -2.40448,-2.50403 2.4043404,2.5039516 0 0 1 2.40448,-2.504 z"
       id="rect4844-7"
       inkscape:connector-curvature="0" />
    <rect
       style="opacity:1;fill:#ebebeb;fill-opacity:1;stroke:none;stroke-width:2.81834912;stroke-miterlimit:4;stroke-dasharray:none;stroke-opacity:0.99607843"
       id="rect5004-1"
       width="63.499989"
       height="41.579941"
       x="131.30988"
       y="142.1261"
       rx="1.2213039"
       ry="0.094553746" />
  </g>
</svg>
